<mxfile host="app.diagrams.net" modified="2021-01-28T14:43:59.511Z" agent="5.0 (Macintosh; Intel Mac OS X 10_14_6) AppleWebKit/537.36 (KHTML, like Gecko) Chrome/88.0.4324.96 Safari/537.36" etag="XmDf5Aoy8TVeZHybTMzu" version="14.2.4" type="github">
  <diagram id="C5RBs43oDa-KdzZeNtuy" name="Page-1">
    <mxGraphModel dx="1186" dy="716" grid="1" gridSize="10" guides="1" tooltips="1" connect="1" arrows="1" fold="1" page="1" pageScale="1" pageWidth="1654" pageHeight="1169" math="0" shadow="0">
      <root>
        <mxCell id="WIyWlLk6GJQsqaUBKTNV-0" />
        <mxCell id="WIyWlLk6GJQsqaUBKTNV-1" parent="WIyWlLk6GJQsqaUBKTNV-0" />
        <mxCell id="d2kshv5pj5mYFe1yfL0T-2" style="edgeStyle=orthogonalEdgeStyle;rounded=0;orthogonalLoop=1;jettySize=auto;html=1;exitX=1;exitY=0.5;exitDx=0;exitDy=0;entryX=0;entryY=0.5;entryDx=0;entryDy=0;" edge="1" parent="WIyWlLk6GJQsqaUBKTNV-1" source="d2kshv5pj5mYFe1yfL0T-0" target="d2kshv5pj5mYFe1yfL0T-1">
          <mxGeometry relative="1" as="geometry" />
        </mxCell>
        <mxCell id="d2kshv5pj5mYFe1yfL0T-0" value="启动电源和系统" style="rounded=1;whiteSpace=wrap;html=1;fillColor=#cce5ff;strokeColor=#36393d;" vertex="1" parent="WIyWlLk6GJQsqaUBKTNV-1">
          <mxGeometry x="90" y="559.5" width="100" height="50" as="geometry" />
        </mxCell>
        <mxCell id="d2kshv5pj5mYFe1yfL0T-4" style="edgeStyle=orthogonalEdgeStyle;rounded=0;orthogonalLoop=1;jettySize=auto;html=1;exitX=1;exitY=0.5;exitDx=0;exitDy=0;entryX=0;entryY=0.5;entryDx=0;entryDy=0;" edge="1" parent="WIyWlLk6GJQsqaUBKTNV-1" source="d2kshv5pj5mYFe1yfL0T-1" target="d2kshv5pj5mYFe1yfL0T-3">
          <mxGeometry relative="1" as="geometry" />
        </mxCell>
        <mxCell id="d2kshv5pj5mYFe1yfL0T-1" value="BootLoader" style="rounded=1;whiteSpace=wrap;html=1;fillColor=#cce5ff;strokeColor=#36393d;" vertex="1" parent="WIyWlLk6GJQsqaUBKTNV-1">
          <mxGeometry x="233" y="559.5" width="100" height="50" as="geometry" />
        </mxCell>
        <mxCell id="d2kshv5pj5mYFe1yfL0T-8" style="edgeStyle=orthogonalEdgeStyle;rounded=0;orthogonalLoop=1;jettySize=auto;html=1;exitX=1;exitY=0.5;exitDx=0;exitDy=0;entryX=0;entryY=0.5;entryDx=0;entryDy=0;" edge="1" parent="WIyWlLk6GJQsqaUBKTNV-1" source="d2kshv5pj5mYFe1yfL0T-3" target="d2kshv5pj5mYFe1yfL0T-7">
          <mxGeometry relative="1" as="geometry" />
        </mxCell>
        <mxCell id="d2kshv5pj5mYFe1yfL0T-3" value="Linux内核启动" style="rounded=1;whiteSpace=wrap;html=1;fillColor=#cce5ff;strokeColor=#36393d;" vertex="1" parent="WIyWlLk6GJQsqaUBKTNV-1">
          <mxGeometry x="374" y="559.5" width="100" height="50" as="geometry" />
        </mxCell>
        <mxCell id="d2kshv5pj5mYFe1yfL0T-7" value="启动init进程" style="rounded=1;whiteSpace=wrap;html=1;fillColor=#cce5ff;strokeColor=#36393d;" vertex="1" parent="WIyWlLk6GJQsqaUBKTNV-1">
          <mxGeometry x="520" y="559.5" width="100" height="50" as="geometry" />
        </mxCell>
        <mxCell id="d2kshv5pj5mYFe1yfL0T-9" value="" style="shape=curlyBracket;whiteSpace=wrap;html=1;rounded=1;" vertex="1" parent="WIyWlLk6GJQsqaUBKTNV-1">
          <mxGeometry x="630" y="472" width="20" height="225" as="geometry" />
        </mxCell>
      </root>
    </mxGraphModel>
  </diagram>
</mxfile>
